<?xml version="1.0" encoding="utf-8"?>
<!-- Generator: Adobe Illustrator 21.1.0, SVG Export Plug-In . SVG Version: 6.00 Build 0)  -->
<svg version="1.1" xmlns="http://www.w3.org/2000/svg" xmlns:xlink="http://www.w3.org/1999/xlink" x="0px" y="0px"
	 viewBox="0 0 841.9 595.3" style="enable-background:new 0 0 841.9 595.3;" xml:space="preserve">
<style type="text/css">
	.st0{display:none;}
	.st1{display:inline;fill:#EA3939;}
	.st2{display:inline;fill:none;stroke:#E03434;stroke-width:6;stroke-miterlimit:10;}
	.st3{display:inline;fill:none;stroke:#5D8FCC;stroke-width:5;stroke-miterlimit:10;}
	.st4{display:inline;}
	.st5{fill:#5D8FCC;}
	.st6{fill:#E28139;}
	.st7{display:none;fill:#5D8FCC;}
</style>
<g id="Calque_3" class="st0">
	<circle class="st1" cx="194.5" cy="312.3" r="177.5"/>
</g>
<g id="Calque_2" class="st0">
	<circle class="st2" cx="432.4" cy="310" r="57.7"/>
	<path class="st3" d="M432.5,234.5v37.2c21.1,0,38.1,17.1,38.1,38.1s-15.2,37.9-41.8,38.1l3.7,37.7c41.6-0.1,75.4-33.9,75.4-75.6
		S474.2,234.7,432.5,234.5z"/>
</g>
<g id="Calque_1">
	<g class="st0">
		<path class="st4" d="M119.4,130.6c0-13-18-16.9-23.1-4.8c-2.2,5.2-3,12.6-3,23.2l-2.7,386.3c0.8,18.8,0.5,27.6,9.4,30.9
			c7.8,2.9,19.3-1.1,19.3-12.1V130.6z"/>
	</g>
	<path class="st5" d="M548.2,275.7c-1.4-1.4-4.1-2.7-4.1-4.7c0-1.4,2-3.4,2.7-4.1c23-27.1,37.9-52.1,37.9-88.6
		c0-82.5-67-125.8-143.4-125.8h-48.7c-10.9,0-19.8,8.9-19.8,19.8v10.9c0,10.8,8.7,19.7,19.6,19.8c15.9,0.2,31.8,0.3,47.6,0.3
		c46.7,0,94,19.6,94,73.7c0,54.1-46.7,76.4-94.7,76.4h-46.7c-10.9,0-19.8,8.9-19.8,19.8v11.4c0,10.9,8.8,19.7,19.6,19.8
		c25.3,0.2,50.6,0.4,75.9,0.4c44,0,80.5,27.1,80.5,73.7c0,57.5-52.1,79.2-102.2,79.2c-17.9,0-35.8-0.5-53.7-0.9
		c-11.1-0.3-20.2,8.7-20.2,19.8v10.1c0,10.9,8.9,19.8,19.8,19.8h47.4c23,0,46.7-0.7,69-6.8c53.4-14.9,90.7-65.6,90.7-121.1
		C599.6,333.9,582,303.5,548.2,275.7z"/>
	<path class="st6" d="M720.3,303.3c0-1.4,2-2,3.4-2.7c53.4-22.3,90-60.2,90-121.1c0-79.8-62.2-127.2-138-127.2h-20.5
		c-12.6,0-22.8,10.2-22.8,22.8v5.1c0,12.6,10.2,22.8,22.8,22.8h7.6c51.4,0,100.8,15.6,100.8,75.8c0,60.9-46,76.4-98.8,76.4h-9.7
		c-12.6,0-22.8,10.2-22.8,22.8v5.1c0,12.6,10.2,22.8,22.8,22.8h3.6c2,0,4.1,0,4.7,2c0.7,0,1.4,2.7,1.4,2.7c0,0.7,0.7,1.4,0.7,2
		l96.1,176.6c6.1,10.8,12.2,17.6,25,17.6c13.5,0,25-9.5,25-23.7c0-6.8-2.7-12.2-6.1-18.3C797.4,449.4,720.3,310.1,720.3,303.3z"/>
	<path class="st0" d="M710.5,185.2c-19.2-40-60-68.5-103.7-79.5c-15.2-3.8-29.9,7.9-29.9,23.6v0c0,11.3,7.8,20.9,18.8,23.6
		c9.3,2.4,18.4,5.9,26.9,10.7c48,25.7,57.5,66.3,57.5,117.7v103.5c0,60.8-28.8,112.7-84.6,126.3c-10.9,2.7-18.5,12.4-18.5,23.5v0.7
		c0,15.9,14.9,27.3,30.3,23.5c76.4-19.2,122.9-89.8,122.9-172.7V282.6C730.1,250.1,724.7,214.9,710.5,185.2z"/>
	<path class="st7" d="M-62,499.5l-36.8-26.7c-5.3-3.9-6.5-11.4-2.7-16.8L189.9,54.7c3.9-5.3,11.4-6.5,16.8-2.7l36.8,26.7
		c5.3,3.9,6.5,11.4,2.7,16.8L-45.3,496.8C-49.2,502.1-56.7,503.3-62,499.5z"/>
</g>
<g id="Calque_4">
	<path class="st5" d="M52.5,494.2l-31.7-23c-5.3-3.9-6.5-11.4-2.7-16.8l112.3-154.6c3.9-5.3,11.4-6.5,16.8-2.7l31.7,23
		c5.3,3.9,6.5,11.4,2.7,16.8L69.2,491.5C65.4,496.9,57.8,498.1,52.5,494.2z"/>
	<path class="st5" d="M333,458.7l-26.5,32.4c-3.9,4.8-11,5.5-15.7,1.6l-181.4-148c-4.8-3.9-5.5-11-1.6-15.7l26.5-32.4
		c3.9-4.8,11-5.5,15.7-1.6l181.4,148C336.2,446.9,336.9,454,333,458.7z"/>
	<path class="st5" d="M189.1,306l-31.7-23c-5.3-3.9-6.5-11.4-2.7-16.8L308.6,54.4c3.9-5.3,11.4-6.5,16.8-2.7l31.7,23
		c5.3,3.9,6.5,11.4,2.7,16.8L205.9,303.3C202,308.7,194.5,309.9,189.1,306z"/>
</g>
<g id="Calque_4_-_copie">
</g>
</svg>
